# xmcd
#
# Track frame offsets:
#	150
#	19997
#	41122
#	59642
#	75990
#	92850
#	108354
#	128130
#	149580
#	170255
#	190105
#	211232
#	229752
#	246100
#	262960
#	278467
#	298242
#	319692
#
# Disc length: 4538 seconds
#
# Revision: 1
# Processed by: cddbd v1.5.2PL0 Copyright (c) Steve Scherf et al.
# Submitted via: audiograbber 1.83.01
#
DISCID=0411b812
DTITLE=Various Artist - THH0402
DYEAR=2004
DGENRE=Karaoke
TTITLE0=Ja Rule - Vocal
TTITLE1=Keys, Alicia - Vocal
TTITLE2=Outkast - Vocal
TTITLE3=Mya - Vocal
TTITLE4=Musiq - Vocal
TTITLE5=Bad Boy's Da Band - Vocal
TTITLE6=Dwele - Vocal
TTITLE7=Chingy and Ludacris and Snoop Dogg - Vocal
TTITLE8=Green, Vivian - Vocal
TTITLE9=Ja Rule - Clap Back
TTITLE10=Keys, Alicia - You Don't Know My Name
TTITLE11=Outkast - Hey Ya
TTITLE12=Mya - Fallen
TTITLE13=Musiq - Forthenight
TTITLE14=Bad Boy's Da Band - Bad Boy This Bad Boy That
TTITLE15=Dwele - Find A Way
TTITLE16=Chingy and Ludacris and Snoop Dogg - Holidae In
TTITLE17=Green, Vivian - What Is Love
EXTD=
EXTT0=
EXTT1=
EXTT2=
EXTT3=
EXTT4=
EXTT5=
EXTT6=
EXTT7=
EXTT8=
EXTT9=
EXTT10=
EXTT11=
EXTT12=
EXTT13=
EXTT14=
EXTT15=
EXTT16=
EXTT17=
PLAYORDER=
